#!OML:ASF H:\Dans Jumps\Project 1\Capture day 1\Session 1\subject.ASF
:FULLY-SPECIFIED
:DEGREES
99
root 0.214867 17.0004 -15.0882 11.5277 -0.948412 -2.10416
lowerback 7.72544 -0.107132 0.329051
upperback 6.80974 -0.160188 2.08707
thorax 2.72543 -0.118904 1.9801
lowerneck -13.5917 0.432103 -1.74659
upperneck 25.8336 1.20612 -0.611122
head 10.514 0.306184 0.23514
rclavicle 7.45443e-015 1.94809e-014
rhumerus -25.081 -15.4398 -77.4639
rradius 25.6547
rwrist 27.6488
rhand -20.193 -26.8709
rfingers 7.12502
rthumb 6.15349 -56.7616
lclavicle 7.45443e-015 1.94809e-014
lhumerus -21.2823 -2.51386 86.8847
lradius 20.3634
lwrist 10.6139
lhand -27.6817 -4.08696
lfingers 7.12502
lthumb -1.07851 25.8901
rfemur -33.3462 -4.01808 21.2712
rtibia 39.6083
rfoot -16.9186 -1.9695
rtoes 7.25573
lfemur -33.2463 9.93573 -19.2317
ltibia 39.6125
lfoot -15.8354 3.90152
ltoes -1.81201
100
root 0.215901 16.9658 -15.1195 11.715 -1.01235 -2.10066
lowerback 8.00338 -0.0696924 0.283297
upperback 6.88233 -0.110368 2.08802
thorax 2.64682 -0.096007 2.00502
lowerneck -13.6665 0.435076 -1.71132
upperneck 25.5128 1.2153 -0.673036
head 10.4115 0.309855 0.207914
rclavicle 1.59028e-015 -9.93923e-016
rhumerus -25.4236 -15.3773 -77.3236
rradius 25.7445
rwrist 27.4663
rhand -20.235 -26.854
rfingers 7.12502
rthumb 6.11294 -56.7458
lclavicle 1.59028e-015 -9.93923e-016
lhumerus -21.5782 -2.60118 86.8415
lradius 20.4731
lwrist 10.9463
lhand -27.8382 -4.35947
lfingers 7.12502
lthumb -1.22961 25.6167
rfemur -34.1019 -4.01144 21.2964
rtibia 40.3792
rfoot -17.1468 -1.97643
rtoes 7.1868
lfemur -33.9906 10.0319 -19.3155
ltibia 40.3746
lfoot -16.064 3.965
ltoes -1.93538
101
root 0.216897 16.9302 -15.1507 11.9059 -1.07832 -2.10021
lowerback 8.27354 -0.0311431 0.241223
upperback 6.95986 -0.059384 2.08717
thorax 2.57781 -0.0724056 2.02568
lowerneck -13.743 0.437319 -1.68119
upperneck 25.1864 1.22172 -0.724979
head 10.3078 0.312999 0.18487
rclavicle 1.98785e-016 2.78299e-015
rhumerus -25.7686 -15.3351 -77.1825
rradius 25.821
rwrist 27.3198
rhand -20.2683 -26.8289
rfingers 7.12502
rthumb 6.08077 -56.7216
lclavicle 1.98785e-016 2.78299e-015
lhumerus -21.8821 -2.6811 86.7962
lradius 20.5742
lwrist 11.2921
lhand -28.0283 -4.71682
lfingers 7.12502
lthumb -1.41327 25.2582
rfemur -34.8637 -4.00065 21.3246
rtibia 41.1555
rfoot -17.3852 -1.98436
rtoes 7.12151
lfemur -34.7444 10.1285 -19.3969
ltibia 41.1445
lfoot -16.2963 4.0311
ltoes -2.05395
102
root 0.217851 16.8933 -15.1819 12.0989 -1.1443 -2.10731
lowerback 8.54356 0.00712051 0.20813
upperback 7.03658 -0.00852656 2.08567
thorax 2.50821 -0.0485077 2.04031
lowerneck -13.8282 0.441536 -1.64798
upperneck 24.8678 1.22951 -0.774245
head 10.2092 0.317231 0.162576
rclavicle 5.36719e-015 -1.19271e-014
rhumerus -26.1327 -15.2942 -77.0397
rradius 25.8969
rwrist 27.2026
rhand -20.2771 -26.7981
rfingers 7.12502
rthumb 6.0723 -56.691
lclavicle 5.36719e-015 -1.19271e-014
lhumerus -22.2056 -2.74436 86.7468
lradius 20.6701
lwrist 11.6391
lhand -28.2121 -5.06053
lfingers 7.12502
lthumb -1.59081 24.9133
rfemur -35.6301 -3.98278 21.3601
rtibia 41.9374
rfoot -17.6311 -1.99408
rtoes 7.06373
lfemur -35.508 10.2253 -19.4704
ltibia 41.925
lfoot -16.5329 4.09988
ltoes -2.16982
103
root 0.218883 16.8554 -15.2126 12.2887 -1.20845 -2.12014
lowerback 8.82034 0.0444175 0.184605
upperback 7.11341 0.0414996 2.08256
thorax 2.43524 -0.0246157 2.04767
lowerneck -13.9085 0.44478 -1.62268
upperneck 24.5437 1.23451 -0.812308
head 10.1079 0.320822 0.145287
rclavicle 5.56597e-015 8.54774e-015
rhumerus -26.5079 -15.2646 -76.8974
rradius 25.9631
rwrist 27.1118
rhand -20.2647 -26.7794
rfingers 7.12502
rthumb 6.0843 -56.672
lclavicle 5.56597e-015 8.54774e-015
lhumerus -22.5458 -2.805 86.6937
lradius 20.7619
lwrist 11.9986
lhand -28.3571 -5.30704
lfingers 7.12502
lthumb -1.7308 24.6657
rfemur -36.393 -3.96292 21.4009
rtibia 42.7247
rfoot -17.8853 -2.00549
rtoes 6.99527
lfemur -36.2706 10.3172 -19.5356
ltibia 42.7149
lfoot -16.775 4.17322
ltoes -2.27673
104
root 0.220091 16.8164 -15.2428 12.4756 -1.27694 -2.1379
lowerback 9.10783 0.0815916 0.16714
upperback 7.18692 0.0917522 2.07809
thorax 2.35314 -0.000307998 2.04987
lowerneck -13.9804 0.448807 -1.60577
upperneck 24.2129 1.23936 -0.839427
head 10.003 0.324921 0.133267
rclavicle -1.59028e-015 -5.96354e-015
rhumerus -26.8962 -15.2439 -76.7535
rradius 26.0169
rwrist 27.0451
rhand -20.2303 -26.7771
rfingers 7.12502
rthumb 6.11744 -56.6688
lclavicle -1.59028e-015 -5.96354e-015
lhumerus -22.9088 -2.85147 86.6341
lradius 20.8511
lwrist 12.3501
lhand -28.4526 -5.41876
lfingers 7.12502
lthumb -1.82306 24.5532
rfemur -37.1553 -3.93414 21.4443
rtibia 43.5196
rfoot -18.1462 -2.02133
rtoes 6.9083
lfemur -37.0324 10.4061 -19.5944
ltibia 43.5142
lfoot -17.0224 4.25795
ltoes -2.37545
105
root 0.221427 16.7762 -15.2726 12.6572 -1.34362 -2.15509
lowerback 9.40889 0.116522 0.152237
upperback 7.25683 0.139308 2.07098
thorax 2.26022 0.0228676 2.04774
lowerneck -14.0429 0.453802 -1.59691
upperneck 23.8754 1.24408 -0.854914
head 9.89418 0.329677 0.12666
rclavicle 5.96354e-015 7.95139e-015
rhumerus -27.301 -15.2284 -76.6077
rradius 26.0583
rwrist 27.0029
rhand -20.1961 -26.7728
rfingers 7.12502
rthumb 6.15045 -56.6635
lclavicle 5.96354e-015 7.95139e-015
lhumerus -23.2912 -2.88643 86.5656
lradius 20.9455
lwrist 12.7099
lhand -28.4454 -5.29702
lfingers 7.12502
lthumb -1.81606 24.675
rfemur -37.9156 -3.90199 21.4853
rtibia 44.3239
rfoot -18.4124 -2.04398
rtoes 6.80867
lfemur -37.7901 10.4847 -19.651
ltibia 44.3209
lfoot -17.273 4.3527
ltoes -2.47097
106
root 0.22299 16.7346 -15.3019 12.8341 -1.40416 -2.16386
lowerback 9.71626 0.146791 0.133361
upperback 7.32596 0.180397 2.06083
thorax 2.16357 0.0427548 2.04488
lowerneck -14.1087 0.459667 -1.59482
upperneck 23.5382 1.24963 -0.862282
head 9.78659 0.335107 0.124153
rclavicle -4.57205e-015 -1.43125e-014
rhumerus -27.7159 -15.2202 -76.4568
rradius 26.0827
rwrist 26.9857
rhand -20.1688 -26.7392
rfingers 7.12502
rthumb 6.17685 -56.6292
lclavicle -4.57205e-015 -1.43125e-014
lhumerus -23.6954 -2.91496 86.4938
lradius 21.0334
lwrist 13.0606
lhand -28.4443 -5.18088
lfingers 7.12502
lthumb -1.815 24.7911
rfemur -38.6763 -3.87656 21.517
rtibia 45.141
rfoot -18.6858 -2.07421
rtoes 6.68983
lfemur -38.5438 10.55 -19.7148
ltibia 45.1346
lfoot -17.5298 4.45624
ltoes -2.55449
